<?xml version="1.0" encoding="UTF-8"?>
<svg version="1.1" xmlns="http://www.w3.org/2000/svg" width="512" height="512">
<path d="M0 0 C0.98257782 -0.00701431 1.96515564 -0.01402863 2.97750854 -0.02125549 C6.1282821 -0.03865011 9.2788677 -0.0451071 12.4296875 -0.046875 C14.04472168 -0.04788712 14.04472168 -0.04788712 15.69238281 -0.04891968 C31.43830066 -0.03322656 46.77980975 0.33554308 62.3046875 3.203125 C63.30209961 3.38004883 64.29951172 3.55697266 65.32714844 3.73925781 C100.50039679 10.10142926 133.5035521 23.13783499 159.84375 47.89453125 C162.02985731 49.94530811 164.265703 51.89432775 166.5546875 53.828125 C203.0607218 85.7524303 218.0267783 137.51979001 221.3046875 184.203125 C221.44762619 187.76874363 221.4906482 191.33018946 221.5078125 194.8984375 C221.51482681 195.88101532 221.52184113 196.86359314 221.52906799 197.87594604 C221.54646261 201.0267196 221.5529196 204.1773052 221.5546875 207.328125 C221.55536224 208.40481445 221.55603699 209.48150391 221.55673218 210.59082031 C221.5410322 226.34362465 221.14688857 241.6689296 218.3046875 257.203125 C218.13839844 258.1739502 217.97210938 259.14477539 217.80078125 260.14501953 C211.43624306 296.72343483 197.40550251 328.52597497 172.328125 355.95703125 C170.73056822 357.73038096 169.22085258 359.51996482 167.7421875 361.390625 C164.56214054 365.05990996 161.03126689 368.10203155 157.3046875 371.203125 C156.57507813 371.82058594 155.84546875 372.43804687 155.09375 373.07421875 C119.1851462 402.71969398 72.82000289 416.18396355 26.609375 416.40625 C25.62679718 416.41326431 24.64421936 416.42027863 23.63186646 416.42750549 C20.4810929 416.44490011 17.3305073 416.4513571 14.1796875 416.453125 C13.10299805 416.45379974 12.02630859 416.45447449 10.91699219 416.45516968 C-4.83581215 416.4394697 -20.1611171 416.04532607 -35.6953125 413.203125 C-36.6661377 413.03683594 -37.63696289 412.87054688 -38.63720703 412.69921875 C-81.39983929 405.25864475 -123.10390754 385.754524 -150.6953125 351.203125 C-151.47390625 350.23890625 -152.2525 349.2746875 -153.0546875 348.28125 C-181.37210699 312.67709649 -194.69955158 267.37653108 -194.8984375 222.1328125 C-194.90413757 221.0940799 -194.90983765 220.05534729 -194.91571045 218.98513794 C-194.92510754 216.79169717 -194.93167322 214.59824263 -194.93554688 212.40478516 C-194.94514415 209.13547237 -194.97617385 205.86681914 -195.0078125 202.59765625 C-195.10308772 183.73173789 -193.38567007 165.15242615 -189.3203125 146.703125 C-189.10681152 145.71304443 -188.89331055 144.72296387 -188.67333984 143.70288086 C-186.82493544 135.36065073 -184.62949339 127.23362288 -181.6953125 119.203125 C-181.45087402 118.53297363 -181.20643555 117.86282227 -180.95458984 117.17236328 C-173.2699818 96.54677892 -162.09012576 77.71523521 -147.00390625 61.6640625 C-144.95312939 59.47795519 -143.00410975 57.2421095 -141.0703125 54.953125 C-130.79054573 43.19802133 -117.13811469 33.94055184 -103.6953125 26.203125 C-103.12619141 25.87070801 -102.55707031 25.53829102 -101.97070312 25.19580078 C-91.6695335 19.2248953 -80.99011102 14.92805543 -69.6953125 11.203125 C-68.99664062 10.96996582 -68.29796875 10.73680664 -67.578125 10.49658203 C-46.15384211 3.51419482 -22.48746008 0.10817117 0 0 Z " fill="#DCDCDC" transform="translate(242.6953125,47.796875)"/>
<path d="M0 0 C0.98257782 -0.00701431 1.96515564 -0.01402863 2.97750854 -0.02125549 C6.1282821 -0.03865011 9.2788677 -0.0451071 12.4296875 -0.046875 C14.04472168 -0.04788712 14.04472168 -0.04788712 15.69238281 -0.04891968 C31.43830066 -0.03322656 46.77980975 0.33554308 62.3046875 3.203125 C63.30209961 3.38004883 64.29951172 3.55697266 65.32714844 3.73925781 C100.50039679 10.10142926 133.5035521 23.13783499 159.84375 47.89453125 C162.02985731 49.94530811 164.265703 51.89432775 166.5546875 53.828125 C203.0607218 85.7524303 218.0267783 137.51979001 221.3046875 184.203125 C221.44762619 187.76874363 221.4906482 191.33018946 221.5078125 194.8984375 C221.51482681 195.88101532 221.52184113 196.86359314 221.52906799 197.87594604 C221.54646261 201.0267196 221.5529196 204.1773052 221.5546875 207.328125 C221.55536224 208.40481445 221.55603699 209.48150391 221.55673218 210.59082031 C221.5410322 226.34362465 221.14688857 241.6689296 218.3046875 257.203125 C218.13839844 258.1739502 217.97210938 259.14477539 217.80078125 260.14501953 C211.43624306 296.72343483 197.40550251 328.52597497 172.328125 355.95703125 C170.73056822 357.73038096 169.22085258 359.51996482 167.7421875 361.390625 C164.56214054 365.05990996 161.03126689 368.10203155 157.3046875 371.203125 C156.57507813 371.82058594 155.84546875 372.43804687 155.09375 373.07421875 C119.1851462 402.71969398 72.82000289 416.18396355 26.609375 416.40625 C25.62679718 416.41326431 24.64421936 416.42027863 23.63186646 416.42750549 C20.4810929 416.44490011 17.3305073 416.4513571 14.1796875 416.453125 C13.10299805 416.45379974 12.02630859 416.45447449 10.91699219 416.45516968 C-4.83581215 416.4394697 -20.1611171 416.04532607 -35.6953125 413.203125 C-36.6661377 413.03683594 -37.63696289 412.87054688 -38.63720703 412.69921875 C-81.39983929 405.25864475 -123.10390754 385.754524 -150.6953125 351.203125 C-151.47390625 350.23890625 -152.2525 349.2746875 -153.0546875 348.28125 C-181.37210699 312.67709649 -194.69955158 267.37653108 -194.8984375 222.1328125 C-194.90413757 221.0940799 -194.90983765 220.05534729 -194.91571045 218.98513794 C-194.92510754 216.79169717 -194.93167322 214.59824263 -194.93554688 212.40478516 C-194.94514415 209.13547237 -194.97617385 205.86681914 -195.0078125 202.59765625 C-195.10308772 183.73173789 -193.38567007 165.15242615 -189.3203125 146.703125 C-189.10681152 145.71304443 -188.89331055 144.72296387 -188.67333984 143.70288086 C-186.82493544 135.36065073 -184.62949339 127.23362288 -181.6953125 119.203125 C-181.45087402 118.53297363 -181.20643555 117.86282227 -180.95458984 117.17236328 C-173.2699818 96.54677892 -162.09012576 77.71523521 -147.00390625 61.6640625 C-144.95312939 59.47795519 -143.00410975 57.2421095 -141.0703125 54.953125 C-130.79054573 43.19802133 -117.13811469 33.94055184 -103.6953125 26.203125 C-103.12619141 25.87070801 -102.55707031 25.53829102 -101.97070312 25.19580078 C-91.6695335 19.2248953 -80.99011102 14.92805543 -69.6953125 11.203125 C-68.99664062 10.96996582 -68.29796875 10.73680664 -67.578125 10.49658203 C-46.15384211 3.51419482 -22.48746008 0.10817117 0 0 Z M-122.7109375 82.77734375 C-158.50310719 121.63765789 -164.61295842 175.42251383 -162.79290771 226.10778809 C-162.43560239 233.7790149 -161.43660595 241.34487156 -160.10107422 248.90136719 C-159.72362177 251.04253549 -159.39227304 253.18528471 -159.07421875 255.3359375 C-155.09653287 279.79499973 -146.21248769 302.17943508 -131.6953125 322.203125 C-131.08429688 323.0590625 -130.47328125 323.915 -129.84375 324.796875 C-104.01173554 358.93610116 -66.65797384 375.89265654 -25.25 382.24609375 C-0.29346379 385.64659872 26.36638658 385.90617745 51.3046875 382.203125 C52.55765625 382.0177417 52.55765625 382.0177417 53.8359375 381.82861328 C95.16184829 375.41033836 132.80880634 357.07019835 158.1171875 322.828125 C189.7091645 278.54789515 195.07934798 219.00022236 186.84814453 166.38427734 C181.08489677 132.64882439 168.93394763 104.20617932 145.3046875 79.203125 C144.50804687 78.33042969 143.71140625 77.45773438 142.890625 76.55859375 C116.6742824 48.87698729 80.05669729 38.04945671 43.3046875 33.203125 C42.59223877 33.10596191 41.87979004 33.00879883 41.14575195 32.90869141 C-18.10991198 25.8600198 -80.57594395 38.69495504 -122.7109375 82.77734375 Z " fill="#000000" transform="translate(242.6953125,47.796875)"/>
<path d="M0 0 C4.20328938 2.77238235 7.66979118 6.40208236 9.9375 10.9375 C10.66002169 17.92187637 9.12561695 21.41427596 4.9375 26.9375 C1.63058346 30.6568652 -1.87196338 34.17039932 -5.40234375 37.67578125 C-6.41259259 38.68805545 -7.42239611 39.70077424 -8.43177795 40.71391296 C-10.53749457 42.82402713 -12.64847625 44.92868421 -14.76342773 47.02954102 C-17.46465146 49.7136303 -20.15212078 52.41102673 -22.83580685 55.11263752 C-24.91424162 57.20194224 -26.99980502 59.28401321 -29.08755684 61.36400414 C-30.08125121 62.35570766 -31.07275074 63.34961577 -32.06193352 64.34581947 C-33.44668072 65.73823852 -34.84216991 67.11994941 -36.23803711 68.5012207 C-37.02681747 69.28761429 -37.81559784 70.07400787 -38.62828064 70.88423157 C-42.93000348 74.51274256 -47.20821124 76.66871198 -52.94970703 76.40454102 C-61.54762587 74.50393797 -68.49104922 65.93163713 -74.375 59.9375 C-75.25478516 59.0609375 -76.13457031 58.184375 -77.04101562 57.28125 C-88.68526704 45.53974212 -88.68526704 45.53974212 -89.375 37.125 C-89.27935874 31.32276384 -86.24013855 28.258753 -82.5 24.0625 C-78.87741994 21.22144102 -75.1901462 21.28851618 -70.7265625 21.53515625 C-62.08196739 22.84071827 -56.79278785 29.89590878 -51.0625 35.9375 C-46.27677198 31.95850754 -41.80708637 27.78777246 -37.46484375 23.33203125 C-36.23922143 22.08890757 -35.01330115 20.8460776 -33.78710938 19.60351562 C-31.88588647 17.67128248 -29.9871223 15.73680897 -28.09350586 13.79711914 C-26.2449266 11.90608767 -24.3869217 10.0247396 -22.52734375 8.14453125 C-21.96780502 7.56637161 -21.4082663 6.98821198 -20.83177185 6.39253235 C-14.71764615 0.23911624 -8.73029691 -3.02887852 0 0 Z " fill="#020202" transform="translate(229.0625,163.0625)"/>
<path d="M0 0 C4.80113023 2.0305532 7.60965952 4.66131659 10.1015625 9.23828125 C11.53344335 12.83768816 11.74492368 15.60116367 10.953125 19.37890625 C7.59393774 26.8637976 1.33665643 32.43433925 -4.38671875 38.1171875 C-5.39696759 39.1294617 -6.40677111 40.14218049 -7.41615295 41.15531921 C-9.52186957 43.26543338 -11.63285125 45.37009046 -13.74780273 47.47094727 C-16.44902646 50.15503655 -19.13649578 52.85243298 -21.82018185 55.55404377 C-23.89861662 57.64334849 -25.98418002 59.72541946 -28.07193184 61.80541039 C-29.06562621 62.79711391 -30.05712574 63.79102202 -31.04630852 64.78722572 C-32.43105572 66.17964477 -33.82654491 67.56135566 -35.22241211 68.94262695 C-36.01119247 69.72902054 -36.79997284 70.51541412 -37.61265564 71.32563782 C-41.35157388 74.47942212 -44.67349913 76.23175884 -49.546875 76.75390625 C-56.55779232 76.00273654 -60.72291386 72.15338764 -65.46875 67.35546875 C-66.05481018 66.77227875 -66.64087036 66.18908875 -67.24468994 65.58822632 C-68.47524644 64.35970193 -69.70206022 63.12741834 -70.92529297 61.89160156 C-72.79462733 60.00617327 -74.67946665 58.13732158 -76.56640625 56.26953125 C-77.76398413 55.06997135 -78.96063129 53.86948139 -80.15625 52.66796875 C-80.99842072 51.83490707 -80.99842072 51.83490707 -81.85760498 50.98501587 C-86.17145884 46.59286929 -87.84194018 43.5307219 -88.421875 37.44140625 C-88.25020904 31.73351294 -85.16095386 28.62884839 -81.484375 24.50390625 C-77.86179494 21.66284727 -74.1745212 21.72992243 -69.7109375 21.9765625 C-61.06634239 23.28212452 -55.77716285 30.33731503 -50.046875 36.37890625 C-45.26114698 32.39991379 -40.79146137 28.22917871 -36.44921875 23.7734375 C-35.22359643 22.53031382 -33.99767615 21.28748385 -32.77148438 20.04492188 C-30.87026147 18.11268873 -28.9714973 16.17821522 -27.07788086 14.23852539 C-25.2293016 12.34749392 -23.3712967 10.46614585 -21.51171875 8.5859375 C-20.95218002 8.00777786 -20.3926413 7.42961823 -19.81614685 6.8339386 C-14.11671378 1.09788001 -8.32036929 -2.52469221 0 0 Z " fill="#010101" transform="translate(228.046875,273.62109375)"/>
<path d="M0 0 C0.85930618 -0.0071553 1.71861237 -0.01431061 2.60395813 -0.02168274 C5.43248342 -0.03853319 8.25941555 -0.01918895 11.08789062 0.00219727 C13.06034475 0.00136823 15.03279881 -0.00109246 17.00524902 -0.00511169 C21.1344081 -0.0079672 25.263024 0.00670747 29.39208984 0.03417969 C34.67828416 0.06826185 39.96350743 0.0622418 45.24974823 0.04351711 C49.32135068 0.03293597 53.39272815 0.04189511 57.46430969 0.05690193 C59.41310457 0.06207601 61.36192301 0.06161136 63.31071472 0.05535698 C66.03708206 0.04989133 68.76207108 0.07032274 71.48828125 0.09765625 C72.28949905 0.09113037 73.09071686 0.08460449 73.91621399 0.07788086 C79.14060445 0.1667027 82.07944512 1.21453918 86.24414062 4.63110352 C90.13960278 9.05297947 91.55642983 11.55377781 91.45898438 17.54125977 C90.8739561 23.23198933 87.43478589 27.03912186 83.24414062 30.63110352 C78.93565902 32.87973065 74.8151121 32.92129933 70.06079102 32.90576172 C69.25039871 32.91087265 68.44000641 32.91598358 67.60505676 32.92124939 C64.93389441 32.93511661 62.26299089 32.93419084 59.59179688 32.93188477 C57.7300151 32.93577317 55.86823421 32.94010814 54.00645447 32.94487 C50.10689415 32.95232595 46.20742438 32.95204537 42.30786133 32.94677734 C37.31662611 32.94098245 32.32576193 32.95791722 27.33458805 32.98112202 C23.49037009 32.99587052 19.64624128 32.99672955 15.80200005 32.99361229 C13.96204328 32.9941249 12.12208144 32.99935138 10.28215218 33.00942421 C7.70681934 33.02179348 5.13220652 33.01499428 2.55688477 33.00341797 C1.80084961 33.01106171 1.04481445 33.01870544 0.26586914 33.02658081 C-5.34560451 32.97097186 -9.46173493 31.74727701 -13.61914062 27.91235352 C-14.09738281 27.32454102 -14.575625 26.73672852 -15.06835938 26.13110352 C-15.55949219 25.54329102 -16.050625 24.95547852 -16.55664062 24.34985352 C-19.23935725 20.50491764 -19.36571755 16.14920778 -18.75585938 11.63110352 C-14.37364218 3.03521594 -9.24203784 -0.13486938 0 0 Z " fill="#030303" transform="translate(280.755859375,306.368896484375)"/>
<path d="M0 0 C0.84896851 -0.0065712 1.69793701 -0.0131424 2.57263184 -0.01991272 C5.38989343 -0.03966715 8.20710163 -0.05131371 11.02441406 -0.0612793 C11.9859565 -0.06535482 12.94749893 -0.06943035 13.93817902 -0.07362938 C19.0284453 -0.09450029 24.11868454 -0.10879701 29.20898438 -0.11816406 C34.46603055 -0.12922448 39.72265297 -0.16361728 44.97954941 -0.20333576 C49.0219196 -0.22948834 53.06418869 -0.23785475 57.10663605 -0.24144554 C59.04430245 -0.24631581 60.98196422 -0.25794233 62.91954803 -0.27648354 C65.63420602 -0.30084376 68.34776607 -0.2999156 71.0625 -0.29296875 C72.25972687 -0.31218384 72.25972687 -0.31218384 73.48114014 -0.33178711 C78.70941757 -0.28310912 81.62331319 0.75473965 85.79003906 4.17700195 C89.59793153 8.49947448 91.17021925 11.07959138 91.06347656 16.95043945 C90.49860294 21.5501247 88.75949279 25.62381913 85.07128906 28.5324707 C79.63199385 31.72459946 75.07719174 32.32903741 68.92553711 32.33813477 C68.12519043 32.34309967 67.32484375 32.34806458 66.50024414 32.35317993 C63.85073997 32.3677926 61.20129568 32.37460229 58.55175781 32.38012695 C56.70953876 32.38587943 54.86731973 32.39163715 53.02510071 32.3973999 C49.16069256 32.40790753 45.29630519 32.41375166 41.43188477 32.41723633 C36.48545565 32.4227186 31.53930214 32.44674191 26.5929594 32.47520828 C22.786496 32.49385306 18.98009872 32.49904126 15.17359352 32.5005722 C13.35037544 32.50359543 11.52715842 32.51161281 9.70398521 32.52475739 C7.15001986 32.54185537 4.59672434 32.53992853 2.04272461 32.53344727 C0.91798485 32.54726944 0.91798485 32.54726944 -0.22947693 32.56137085 C-5.82596147 32.51699061 -9.92842972 31.28155905 -14.07324219 27.45825195 C-14.55148437 26.87043945 -15.02972656 26.28262695 -15.52246094 25.67700195 C-16.01359375 25.08918945 -16.50472656 24.50137695 -17.01074219 23.89575195 C-19.69120444 20.05404709 -19.82681457 15.69202784 -19.20996094 11.17700195 C-14.68643215 2.46502058 -9.29322212 0.03099366 0 0 Z " fill="#030303" transform="translate(281.2099609375,195.822998046875)"/>
</svg>
